<svg id="Camada_1" data-name="Camada 1" xmlns="http://www.w3.org/2000/svg" viewBox="0 0 428.45 384.71"><defs><style>.cls-1{fill:#8c20d4;}</style></defs><title>favicon</title><path class="cls-1" d="M887.65,545.82H610.59a21.71,21.71,0,0,0-21.71,21.71v81.18a21.71,21.71,0,0,0,21.71,21.7h3.7A21.71,21.71,0,0,0,636,648.71V592.94H862.24V780.88H716a21.71,21.71,0,0,0-21.71,21.71v45.17A21.71,21.71,0,0,0,716,869.47h3.71a21.71,21.71,0,0,0,21.7-21.71V828H887.65a21.71,21.71,0,0,0,21.7-21.71V567.53A21.71,21.71,0,0,0,887.65,545.82Z" transform="translate(-480.9 -545.82)"/><path class="cls-1" d="M645.53,786.47H528V592.94h27.24a1,1,0,0,1-1-1V567.53a21.7,21.7,0,0,1,16.53-21.08,21.53,21.53,0,0,0-5.17-.63h-63a21.71,21.71,0,0,0-21.71,21.71V811.88a21.71,21.71,0,0,0,21.71,21.71H645.53a21.71,21.71,0,0,0,21.71-21.71v-3.7A21.71,21.71,0,0,0,645.53,786.47Z" transform="translate(-480.9 -545.82)"/><path class="cls-1" d="M739.3,876.88a21.72,21.72,0,0,1-19.59,12.36H716a21.7,21.7,0,0,1-19.59-12.36h-2.12v53.65h47.12V876.88Z" transform="translate(-480.9 -545.82)"/></svg>