<svg id="Camada_1" data-name="Camada 1" xmlns="http://www.w3.org/2000/svg" viewBox="0 0 1065.77 384.71"><defs><style>.cls-1{fill:#fff;}</style></defs><title>meu pc roda logotipo - branco</title><path class="cls-1" d="M556.86,545.82H279.8a21.71,21.71,0,0,0-21.71,21.71v81.18a21.71,21.71,0,0,0,21.71,21.7h3.71a21.71,21.71,0,0,0,21.7-21.7V592.94H531.45V780.88H385.21a21.7,21.7,0,0,0-21.7,21.71v45.17a21.7,21.7,0,0,0,21.7,21.71h3.71a21.7,21.7,0,0,0,21.7-21.71V828H556.86a21.7,21.7,0,0,0,21.7-21.71V567.53A21.7,21.7,0,0,0,556.86,545.82Z" transform="translate(-150.12 -545.82)"/><path class="cls-1" d="M314.74,786.47H197.23V592.94h27.24a1,1,0,0,1-1-1V567.53A21.7,21.7,0,0,1,240,546.45a21.47,21.47,0,0,0-5.17-.63h-63a21.7,21.7,0,0,0-21.7,21.71V811.88a21.7,21.7,0,0,0,21.7,21.71H314.74a21.71,21.71,0,0,0,21.71-21.71v-3.7A21.71,21.71,0,0,0,314.74,786.47Z" transform="translate(-150.12 -545.82)"/><path class="cls-1" d="M408.51,876.88a21.71,21.71,0,0,1-19.59,12.36h-3.71a21.7,21.7,0,0,1-19.59-12.36h-2.11v53.65h47.11V876.88Z" transform="translate(-150.12 -545.82)"/><path class="cls-1" d="M633.28,545.82h25.33V569h12.66v23.17h12.67V569H696.6V545.82h25.33V708.05H696.6v-92.7H683.94v23.17H671.27V615.35H658.61v92.7H633.28Z" transform="translate(-150.12 -545.82)"/><path class="cls-1" d="M734.6,545.82h76V569H759.93v46.35h38v23.17h-38v46.35h50.66v23.18h-76Z" transform="translate(-150.12 -545.82)"/><path class="cls-1" d="M835.92,545.82h25.33v139h25.33v-139h25.33V708.05H848.59V684.87H835.92Z" transform="translate(-150.12 -545.82)"/><path class="cls-1" d="M1038.57,545.82h63.33V569h12.66v46.35H1101.9v23.17h-38v69.53h-25.33ZM1063.9,569v46.35h25.33V569Z" transform="translate(-150.12 -545.82)"/><path class="cls-1" d="M1139.89,569h12.67V545.82h63.32V569h-50.66V684.87h50.66v23.18h-63.32V684.87h-12.67Z" transform="translate(-150.12 -545.82)"/><path class="cls-1" d="M633.28,768.3H696.6v23.18h12.67v46.35H696.6V861H683.94v23.18H696.6v23.17h12.67v23.18H683.94V907.35H671.27V884.18H658.61v46.35H633.28Zm25.33,23.18v46.35h25.33V791.48Z" transform="translate(-150.12 -545.82)"/><path class="cls-1" d="M734.6,791.48h12.66V768.3h50.67v23.18h12.66V907.35H797.93v23.18H747.26V907.35H734.6Zm25.33,0V907.35h25.33V791.48Z" transform="translate(-150.12 -545.82)"/><path class="cls-1" d="M835.92,768.3h63.33v23.18h12.66V907.35H899.25v23.18H835.92Zm25.33,23.18V907.35h25.33V791.48Z" transform="translate(-150.12 -545.82)"/><path class="cls-1" d="M937.25,814.65h12.66V791.48h12.67V768.3h25.33v23.18h12.66v23.17h12.67V930.53H987.91V884.18H962.58v46.35H937.25Zm25.33,0V861h25.33V814.65Z" transform="translate(-150.12 -545.82)"/><path class="cls-1" d="M1038.57,768.3h63.33v23.18h12.66v46.35H1101.9V861h-12.67v23.18H1063.9V837.83h25.33V791.48h-50.66Zm25.33,139.05h25.33v23.18H1063.9Z" transform="translate(-150.12 -545.82)"/></svg>